{"accessors" : [{"bufferView" : 0, "byteOffset" : 0, "componentType" : 5123, "count" : 8166, "type" : "SCALAR", "max" : [6800], "min" : [0]}, {"bufferView" : 1, "byteOffset" : 0, "componentType" : 5126, "count" : 6801, "type" : "VEC3", "max" : [0.803954541683197, 1.4514679908752441, 1.3611812591552734], "min" : [-0.8121519088745117, -1.0538455247879028, -0.9067836403846741], "name" : "POSITION"}, {"bufferView" : 1, "byteOffset" : 12, "componentType" : 5126, "count" : 6801, "type" : "VEC3", "max" : [0.9999560117721558, 0.9972702264785767, 0.9992963075637817], "min" : [-0.9997093677520752, -0.9998637437820435, -0.9996006488800049], "name" : "NORMAL"}, {"bufferView" : 1, "byteOffset" : 24, "componentType" : 5126, "count" : 6801, "type" : "VEC2", "max" : [0.9767359495162964, 0.7360852956771851], "min" : [0.023264050483703613, 0.14837169647216797], "name" : "TEXCOORD_0"}], "asset" : {"generator" : "Aspose.3D 22.1", "version" : "2.0"}, "buffers" : [{"uri" : "data:application/octet-stream;base64,", "byteLength" : 277652}], "bufferViews" : [{"buffer" : 0, "byteOffset" : 0, "byteLength" : 16332, "target" : 34963}, {"buffer" : 0, "byteOffset" : 16336, "byteLength" : 261312, "byteStride" : 32, "target" : 34962}], "images" : [{"uri" : "data:image/png;base64,"}], "materials" : [{"name" : "kt_facebuilder_material", "pbrMetallicRoughness" : {"baseColorFactor" : [1, 1, 1, 1], "baseColorTexture" : {"index" : 0, "texCoord" : 0}, "metallicFactor" : 0, "roughnessFactor" : 0.5}, "emissiveFactor" : [0, 0, 0], "alphaMode" : "OPAQUE", "doubleSided" : true}], "meshes" : [{"primitives" : [{"attributes" : {"POSITION" : 1, "NORMAL" : 2, "TEXCOORD_0" : 3}, "indices" : 0, "material" : 0, "mode" : 4}]}], "nodes" : [{"mesh" : 0, "name" : "pelo"}], "samplers" : [{"magFilter" : 9729, "minFilter" : 9729, "wrapS" : 10497, "wrapT" : 10497}], "scene" : 0, "scenes" : [{"nodes" : [0]}], "textures" : [{"sampler" : 0, "source" : 0}]}